Patient4_TMGait_0pt4_03_left_17_EMG.mot
version=1
nRows=33
nColumns=33
inDegrees=no
endheader
time	1LAddLong	2LGlutMax	3LGlutMed	4LIliopsoas	5LSemiMemb	6LBicFemLong	7LRecFem	8LVastMed	9LVastLat	10LGasMed	11LTibAnt	12lTibPost	13LPeroneusLong	14LSol	15LExtDigLong	16LFlexDigLong	17RAddLong	18RGlutMax	19RGlutMed	20RIliopsoas	21RSemiMemb	22RBicFemLong	23RRecFem	24RVastMed	25RVastLat	26RGasMed	27RTibAnt	28RTibPost	29RPeroneusLong	30RSol	31RExtDigLong	32RFlexDigLong
22.12	0.007935	-0.068359	-0.020447	0.014954	0.009918	0.017548	-0.059052	0.000153	-0.13519	0.000153	0.1091	0.007782	-0.00351	-0.014648	0.074921	-0.00351	0.020599	-0.14603	-0.071106	0.041504	-0.046844	0.036469	-0.26306	-0.19073	-0.050812	0.002594	0.089722	0.00412	0.072632	0.22614	-0.001678	-0.022888
22.121	0.008392	-0.092926	-0.028229	0.027924	0.014343	0.011139	-0.057831	-0.000916	-0.13153	0.01709	0.21316	-0.000153	-0.063019	-0.049286	0.11078	-0.00351	0.005188	-0.15671	-0.10254	0.12558	-0.041962	0.043793	-0.27451	0.00885	0.013885	0.016174	0.030823	-0.012207	1.5605	0.14893	-0.002594	-0.017242
22.122	0.003967	-0.11612	-0.029755	0.024414	0.019531	0.018616	-0.065308	0.004578	-0.13016	0	0.22812	0.000153	-0.047607	-0.033722	0.15152	-0.005188	0.00824	-0.11765	-0.085297	0.1535	-0.041199	0.073242	-0.27283	0.016937	0.042267	0.006409	0.039978	0.020599	1.4647	-0.028687	-0.003052	-0.022583
22.123	-0.007935	-0.096741	-0.045776	0.005341	0.01358	0.031586	-0.08194	-0.001526	-0.13153	-0.008392	0.14648	0.003967	-0.007172	-0.0383	0.15945	-0.010986	0.007019	-0.10254	0.12375	0.13489	-0.041809	0.096893	-0.18539	-0.015411	0.13046	0.006561	-0.072174	0.000763	2.0045	-0.16846	-0.000763	-0.01236
22.124	0.009155	-0.10269	-0.012665	-0.015564	0.017853	0.031738	-0.082703	0.005035	-0.13275	-0.053101	0.089722	0.004883	0.038147	0.017548	0.000305	-0.003052	0.024567	-0.060577	0.57831	0.046692	-0.045624	0.07843	-0.10773	0.006561	0.13977	0.007935	-0.12848	-0.008087	0.54062	-0.25314	0.001221	-0.003662
22.125	-0.002441	-0.12299	-0.01709	-0.007172	0.031891	0.039978	-0.079651	0.010376	-0.1268	-0.038605	0.093079	-0.000153	0.057526	-0.020294	-0.21057	0.006714	0.018463	-0.039063	0.52612	-0.010223	-0.049133	0.050354	-0.075073	0.067749	0.1294	0.002136	0.012207	-0.020142	-0.81512	-0.11398	-0.003967	-0.005493
22.126	-0.001678	-0.12299	-0.020752	-0.001831	0.0177	0.041504	-0.079803	0.005035	-0.12985	-0.002899	0.046539	0.003967	0.034485	-0.050659	-0.31876	-0.022125	0.023804	-0.002289	0.35187	0.071259	-0.05127	0.067902	-0.041809	0.13718	0.088501	0.01358	0.008392	-0.014038	-0.22934	0.11856	-0.003815	0.00061
22.127	0.001221	-0.12573	-0.007782	-0.007019	0.029602	0.045319	-0.082245	0.008698	-0.12833	0.011597	0.015411	0.007172	0.020294	-0.040131	-0.22751	-0.007019	0.023956	0.002136	0.28488	0.094147	-0.042419	0.076294	-0.09552	0.10864	0.1207	0.007935	-0.11902	0.010071	-0.058136	0.14282	0.009918	0.003815
22.128	-0.001678	-0.15015	-0.039978	0.019379	0.014954	0.035858	-0.077362	0.00885	-0.12741	-0.011292	-0.10269	0.007935	0.045471	-0.057373	-0.20309	-0.005341	0.018768	-0.070496	0.24002	0.056305	-0.044556	0.049591	-0.066833	0.077972	0.072174	-0.003815	-0.045166	0.002136	-0.69229	0.11581	-0.001526	-0.006561
22.129	0.002441	-0.12558	-0.032196	0.015411	0.007935	0.040436	-0.085907	0.006256	-0.1236	-0.024109	-0.075378	0.003662	0.041046	-0.049744	0.22583	-0.007324	0.016632	-0.028381	0.11963	-0.024414	-0.02533	0.074005	-0.13748	0.039673	0.043793	-0.027161	0.10117	-0.00946	-0.88028	0.16312	0.007324	-0.007172
22.13	-0.005035	-0.15411	0.018311	0.002747	0.002899	0.046234	-0.08667	0.006256	-0.11307	-0.040588	0.059662	0.007477	0.017395	-0.02121	0.17105	-0.009308	-0.003815	-0.1004	-0.13733	-0.073242	-0.019531	0.054016	-0.16861	0.075684	0.092773	-0.052185	0.081329	-0.010223	0.22492	0.12421	-0.002441	-0.011444
22.131	0.001831	-0.168	0.037079	0.001678	0.005798	0.045319	-0.085144	0.007935	-0.12238	-0.049286	0.099182	0.007172	0.055084	0.038147	0.3067	-0.007172	0.007629	-0.14664	-0.17944	-0.067596	-0.033264	-0.055847	-0.12207	0.074005	0.074768	-0.054779	-0.015259	-0.006561	0.88211	0.029755	-0.001068	-0.010986
22.132	0.001678	-0.17242	-0.007629	-0.005798	0.029755	0.039978	-0.088348	0.005188	-0.1149	-0.035553	0.10422	0.006104	0.023651	0.034332	0.021362	-0.005951	0.007019	-0.13687	0.09079	0.016479	-0.027466	-0.037537	-0.084229	0.024872	0.065765	-0.045929	-0.004272	-0.008698	-0.60837	-0.018311	-0.001984	-0.001984
22.133	-0.001068	-0.16953	-0.009766	0.006714	0.051117	0.034637	-0.096741	0.00824	-0.1236	-0.033417	0.11871	0.017395	0.011597	-0.033875	-0.15121	-0.016632	-0.000153	-0.10178	-0.35828	0.037537	-0.034637	0.011139	-0.069122	0.018921	0.043182	-0.038147	0.007324	-0.01358	-0.75485	-0.003815	0.002899	-0.011139
22.134	0.006866	-0.20966	0.010834	0.009308	0.041656	0.032349	-0.081329	0.008545	-0.12894	-0.040894	0.039368	0.009003	0.0354	-0.072174	-0.22186	-0.013885	-0.00061	-0.11795	-0.1152	-0.005798	-0.026703	0.054474	-0.052948	0.009003	0.002747	-0.024719	0.13199	-0.016327	-0.53406	0.020294	-0.002136	-0.004578
22.135	0.007935	-0.18158	0.032806	0.000153	0.010071	0.015106	-0.10193	0.009308	-0.1294	-0.027008	0.01297	0.009613	0.054626	-0.074921	0.25909	-0.00946	0.002747	-0.13382	-0.28046	-0.010986	-0.018921	0.10574	-0.013275	0.02655	0.00473	0.051117	0.17044	0.010681	-0.084229	-0.11322	0.000763	-0.010376
22.136	0.002594	-0.1915	0.019226	-0.002136	-0.003204	0.018768	-0.10147	0.005188	-0.11368	-0.06073	0.007172	0.011292	0.14114	-0.097504	-0.23254	-0.012817	0.002899	-0.10651	-0.0914	-0.07431	-0.010681	0.13641	0.14908	-0.06073	-0.11917	0.01297	0.097351	0.037231	-0.38452	0.095367	-0.003967	-0.005646
22.137	0.009918	-0.17197	0.015411	-0.009155	0.003052	0.023956	-0.081024	0.004883	-0.096436	-0.12054	-0.1207	0.009766	0.10803	-0.103	-0.19287	-0.011902	0.003662	-0.098724	0.4483	-0.065002	-0.00412	0.15656	0.19898	-0.095978	-0.20447	0.023651	-0.032654	-0.15228	-0.32303	0.27908	-0.001221	-0.017853
22.138	0.002136	-0.19623	0.005188	-0.000153	0.007172	0.023041	-0.076599	0.003204	-0.093079	-0.067444	-0.14694	0.008698	0.05127	-0.12436	-0.19577	-0.011292	0.016937	-0.13718	0.49789	-0.1149	-0.002594	0.14969	0.13809	-0.086365	-0.22293	0.044861	-0.17639	-0.37476	0.86334	0.17456	-0.002594	-0.018768
22.139	0.006866	-0.19623	-0.000458	0.007324	0.011292	0.029144	-0.080719	0.009613	-0.097809	-0.016174	-0.027466	0.013885	-0.015411	-0.091248	-0.19577	-0.005798	-0.002899	-0.094757	0.44647	-0.098267	-0.018158	0.091705	0.1355	-0.067139	-0.14389	0.007019	-0.089569	-0.17044	1.5408	-0.2861	-0.002441	-0.021057
22.14	0.007019	-0.1944	0.006866	0.003052	-0.000763	0.023346	-0.080109	0.003204	-0.093842	0.027924	-0.063629	0.009003	-0.016174	-0.10147	-0.1152	-0.010681	0.002747	-0.055695	0.4747	-0.042267	-0.032196	0.079498	0.098724	-0.069885	-0.099182	0.018616	-0.056305	0.38925	0.080566	-0.83099	-0.004425	-0.013123
22.141	-0.000763	-0.21576	0.001373	0.008545	-0.016022	0.042419	-0.080261	0.004425	-0.099945	0.044556	-0.11978	0.012054	0.046997	-0.079193	-0.093994	-0.003967	0.00412	-0.09613	0.061188	0.042419	-0.028229	0.086975	-0.13473	0.015106	0.018921	0.04303	-0.15152	0.1683	-1.4781	-0.9079	-0.010071	-0.009003
22.142	-0.003815	-0.2124	0.000763	0.009613	-0.045166	0.027618	-0.084076	0.00351	-0.097961	0.066833	-0.10162	0.010834	0.040741	-0.055695	-0.061035	0.004425	-0.014496	-0.080872	0.34317	0.072632	-0.010223	0.099182	-0.37964	0.11032	0.18616	0	-0.059204	0.1152	-0.92224	-0.37888	-0.004883	-0.001984
22.143	0.000763	-0.1831	-0.022736	0.006104	-0.10468	-0.022278	-0.068817	0.008698	-0.099182	0.068665	-0.098572	0.005798	0.038147	-0.07019	-0.016174	0.002899	-0.00824	-0.042114	0.41641	0.042267	-0.007019	0.092468	-0.24277	0.15213	0.19638	-0.042725	-0.015717	0.067596	-0.46753	-0.18753	-0.001831	-0.010071
22.144	-0.008087	-0.18326	-0.016479	0.012817	-0.076599	-0.028839	-0.080261	0.008087	-0.10208	0.05127	-0.031128	0.006714	0.036774	-0.16449	0.11734	-0.002289	0.001678	-0.039673	0.36743	-0.019073	-0.023041	0.087585	-0.052795	0.03067	0.043945	-0.0383	-0.020142	-0.010529	-0.098877	-0.25574	-0.001068	-0.009308
22.145	0.00885	-0.21805	-0.00885	-0.014496	-0.022736	-0.031433	-0.084991	-0.002594	-0.090942	0.034485	-0.004272	0.01297	-0.004578	-0.21774	0.21805	0.002594	-0.00412	-0.038605	0.21164	-0.020142	-0.024109	0.074158	-0.031586	-0.055695	-0.018158	-0.007629	-0.023651	0.054779	0.057068	0.29907	0.000305	-0.00351
22.146	0.017242	-0.18616	-0.022736	0.003662	-0.000458	0.001221	-0.072937	0.008392	-0.097504	0.025482	-0.005035	0.007935	-0.015564	-0.16357	0.19226	0.010681	0.002899	-0.05188	0.13901	0.007782	-0.021515	0.060577	-0.006866	-0.068359	0.016022	0.007935	-0.017853	0.036163	0.44342	0.49942	0.001831	0.007172
22.147	0.024109	-0.16663	-0.004578	0.010223	0.06134	0.04425	-0.076599	0.006409	-0.078583	-0.001526	0.002136	0.006866	-0.007782	-0.14618	0.1181	0.007935	0.005035	-0.044098	0.25177	0.024719	-0.018311	0.061493	0.005951	0.017548	0.034485	0.007935	0.011902	0.01297	-0.02533	0.79071	-0.001984	-0.002747
22.148	0.022583	-0.1648	0.020752	0.002289	0.001984	0.04837	-0.068207	0.006714	-0.059357	-0.019684	0.006714	0.007782	0.002594	-0.10498	0.046997	-0.000153	0.001984	0.001221	0.40207	0.021057	-0.009766	0.045166	-0.032501	0.04364	0.031586	-0.00412	0.048981	-0.007782	0.11673	0.59921	-0.002899	-0.002289
22.149	0.012512	-0.13092	0.029755	0.001221	0.014801	0.010529	-0.046387	0.005341	-0.059509	-0.053406	0.031281	0.007172	0.027924	-0.08667	-0.010223	0.00061	-0.002899	0.016479	0.012817	0.063477	-0.014038	0.0383	-0.011597	0.030518	0.023956	-0.005798	0.042419	-0.002899	0.24185	0.36865	-0.004578	-0.003357
22.15	0.012817	-0.13153	-0.019989	0.001373	-0.012207	0.015564	-0.042725	0.008087	-0.055389	-0.041199	-0.000458	0.007324	0.031128	-0.11398	-0.020905	0.001221	-0.003052	-0.008545	0.13611	-0.006409	-0.014191	0.025177	0.030823	0.06897	0.087585	-0.001831	0.07309	-0.015106	0.56778	0.19165	-0.001221	-0.014954
22.151	0.005646	-0.10803	-0.032959	0.002441	0.016022	0.000305	-0.038757	0.009155	-0.043945	-0.018616	0.014191	0.003204	0.034943	-0.13763	0.038757	-0.003967	-0.006409	-0.007324	0.21225	-0.027008	-0.028076	0.025177	-0.014343	0.013275	0.11551	0.012817	0.010529	-0.007477	0.45364	0.081635	-0.001373	-0.01236
22.152	0.007935	-0.10193	-0.074921	-0.007935	0.005646	0.008087	-0.046844	0.003357	-0.033569	0.002594	0.031281	-0.004578	0.010223	-0.13489	0.070038	0.007324	-0.001984	-0.01236	0.31387	0.035248	-0.030518	0.027008	-0.19989	-0.056458	0.077209	0.048981	-0.092163	-0.015869	-0.44525	0.081482	-0.002289	-0.00885
